<svg width="200" height="200" viewBox="0 0 200 200" fill="none" xmlns="http://www.w3.org/2000/svg">
<path d="M200 100C200 155.228 155.228 200 100 200C44.7715 200 0 155.228 0 100C0 44.7715 44.7715 0 100 0C155.228 0 200 44.7715 200 100Z" fill="#8DC022" fill-opacity="0.1"/>
<path d="M186.478 99.9998C186.478 147.76 147.76 186.478 99.9998 186.478C52.2391 186.478 13.5215 147.76 13.5215 99.9998C13.5215 52.2391 52.2391 13.5215 99.9998 13.5215C147.76 13.5215 186.478 52.2391 186.478 99.9998Z" fill="#8DC022" fill-opacity="0.1"/>
<path d="M164.279 100C164.279 135.5 135.5 164.279 100 164.279C64.5001 164.279 35.7217 135.5 35.7217 100C35.7217 64.5001 64.5001 35.7217 100 35.7217C135.5 35.7217 164.279 64.5001 164.279 100Z" fill="#8DC022" fill-opacity="0.12"/>
<path d="M144.601 99.9999C144.601 124.633 124.633 144.601 99.9999 144.601C75.3672 144.601 55.3984 124.633 55.3984 99.9999C55.3984 75.3672 75.3672 55.3984 99.9999 55.3984C124.633 55.3984 144.601 75.3672 144.601 99.9999Z" fill="#8DC022" fill-opacity="0.5"/>
<path fill-rule="evenodd" clip-rule="evenodd" d="M122.722 84.8008C123.76 85.7303 123.848 87.3252 122.918 88.363L99.1041 114.952C98.6361 115.475 97.9717 115.779 97.2703 115.792C96.5689 115.804 95.894 115.524 95.4075 115.019L77.1936 96.0985C76.2273 95.0948 76.2577 93.4978 77.2614 92.5316C78.2652 91.5653 79.8621 91.5957 80.8284 92.5994L97.1582 109.563L119.16 84.9969C120.09 83.959 121.684 83.8712 122.722 84.8008Z" fill="#6C931A" fill-opacity="0.5"/>
</svg>
