<svg width="200" height="200" viewBox="0 0 200 200" fill="none" xmlns="http://www.w3.org/2000/svg">
<path d="M200 100C200 155.228 155.228 200 100 200C44.7715 200 0 155.228 0 100C0 44.7715 44.7715 0 100 0C155.228 0 200 44.7715 200 100Z" fill="#FF0000" fill-opacity="0.1"/>
<path d="M186.478 99.9998C186.478 147.76 147.76 186.478 99.9998 186.478C52.2391 186.478 13.5215 147.76 13.5215 99.9998C13.5215 52.2391 52.2391 13.5215 99.9998 13.5215C147.76 13.5215 186.478 52.2391 186.478 99.9998Z" fill="#FF0000" fill-opacity="0.1"/>
<path d="M164.279 100C164.279 135.5 135.5 164.279 100 164.279C64.5001 164.279 35.7217 135.5 35.7217 100C35.7217 64.5001 64.5001 35.7217 100 35.7217C135.5 35.7217 164.279 64.5001 164.279 100Z" fill="#FF0000" fill-opacity="0.12"/>
<path d="M144.601 99.9999C144.601 124.633 124.633 144.601 99.9999 144.601C75.3672 144.601 55.3984 124.633 55.3984 99.9999C55.3984 75.3672 75.3672 55.3984 99.9999 55.3984C124.633 55.3984 144.601 75.3672 144.601 99.9999Z" fill="#FF0000" fill-opacity="0.5"/>
<path d="M71 111.999C71 111.999 81 107 98.8667 107C116.733 107 128 111.999 128 111.999" stroke="#9A1A17" stroke-opacity="0.5" stroke-width="4" stroke-linecap="round" stroke-linejoin="round"/>
<ellipse cx="86.5" cy="86.5" rx="3.5" ry="8.5" fill="#9A1A17" fill-opacity="0.5"/>
<ellipse cx="113.5" cy="86.5" rx="3.5" ry="8.5" fill="#9A1A17" fill-opacity="0.5"/>
</svg>
